<?xml version="1.0" encoding="utf-8"?>
<!-- Generator: Adobe Illustrator 19.2.1, SVG Export Plug-In . SVG Version: 6.00 Build 0)  -->
<svg version="1.1" id="Layer_1" xmlns="http://www.w3.org/2000/svg" xmlns:xlink="http://www.w3.org/1999/xlink" x="0px" y="0px"
	 viewBox="0 0 377 101" style="enable-background:new 0 0 377 101;" xml:space="preserve">
<style type="text/css">
	.st0{clip-path:url(#SVGID_2_);fill:#FFFFFF;}
	.st1{clip-path:url(#SVGID_4_);fill:#FFFFFF;}
	.st2{clip-path:url(#SVGID_6_);fill:#FFFFFF;}
</style>
<g>
	<defs>
		<rect id="SVGID_1_" x="5.9" y="2.9" width="64.8" height="69.9"/>
	</defs>
	<clipPath id="SVGID_2_">
		<use xlink:href="#SVGID_1_"  style="overflow:visible;"/>
	</clipPath>
	<path class="st0" d="M56.4,10.1c-0.1-0.1-3.1-1.6-3.1-1.6c-3.9-0.8-10.4-0.5-15,1.2h0c-4.5-1.7-11-2-15-1.2c0,0-3.1,1.5-3.1,1.6
		l-4.8,10.6c-0.2,0.3,0.1,0.5,0.4,0.5c7.3-1.4,15.7-1.8,22.5-1.8h0c6.9,0,15.2,0.4,22.5,1.8c0.3,0.1,0.5-0.2,0.4-0.5L56.4,10.1z
		 M37.2,17.7C32,17.5,23,17.5,18.5,19.1l3.2-8l2.2-1.2l-2.3,6.6c4.7-0.9,9.9-1.2,15.6,0.7L37.2,17.7z M39.4,17.7v-0.5
		c5.7-1.9,10.9-1.6,15.6-0.7l-2.3-6.6l2.2,1.2l3.2,8C53.8,17.5,44.8,17.5,39.4,17.7"/>
	<path class="st0" d="M68.1,6.1L68.1,6.1L67.8,6C58.2,4,48.3,2.9,38.3,2.9c-9.9,0-19.9,1-29.6,3.1l-0.1,0l-0.1,0
		C7,6.5,5.9,7.9,5.9,9.6l0,5.3c0,37.9,23.5,53.3,30.7,57.1c0.6,0.3,1.2,0.5,1.8,0.5c0.6,0,1.2-0.2,1.8-0.5
		c7.2-3.8,30.7-19.2,30.7-57.1V9.6C70.8,8,69.6,6.5,68.1,6.1 M37,69.8C29.1,65.4,13.1,53,9,27.6l0.2,0c9.1-1.9,18.4-2.9,27.8-3V69.8
		z M62.1,45.4C62.1,45.4,62.1,45.5,62.1,45.4c-1.7,3.5-3.6,6.6-5.6,9.3c0,0,0,0,0,0c-1.8,2.5-3.7,4.6-5.6,6.5V51l-5.6-3.7v18.9
		c-2.1,1.6-4,2.8-5.6,3.7V43.5l5.6,3.7V34.2l5.6,3.7V25.1c1.9,0.2,3.7,0.4,5.6,0.6v16L62.1,45.4l0-18.9c1.8,0.3,3.6,0.6,5.4,1l0.2,0
		C66.5,34.4,64.6,40.4,62.1,45.4 M39.7,30.5v-6c1.9,0,3.7,0.1,5.6,0.2v9.5L39.7,30.5z M68.6,14.9c0,3.5-0.2,6.7-0.6,9.8
		c-19.5-4.1-39.9-4.1-59.4,0C8.2,21.6,8,18.3,8,14.9l0-5.3c0-0.7,0.5-1.3,1.2-1.5l0,0c9.4-2,19.1-3.1,29.1-3.1
		c10,0,19.7,1.1,29.1,3.1l0,0c0.7,0.1,1.2,0.8,1.2,1.5L68.6,14.9z"/>
	<polygon class="st0" points="56.5,41.7 50.9,38 50.9,51 56.5,54.7 	"/>
	<path class="st0" d="M25,49.9c5.7,0,10.3-4.6,10.3-10.3c0-5.7-4.6-10.3-10.3-10.3c-5.7,0-10.3,4.6-10.3,10.3
		C14.7,45.3,19.4,49.9,25,49.9 M26.9,48.4c0.8-0.9,1.7-2.1,2.4-3.7c1,0.2,1.8,0.5,2.5,0.7C30.6,46.9,28.9,48,26.9,48.4 M32.6,44.4
		c-0.8-0.3-1.7-0.6-2.8-0.9c0.3-1,0.5-2,0.6-3.2H34C33.8,41.8,33.4,43.2,32.6,44.4 M32.6,34.9c0.7,1.2,1.2,2.6,1.3,4.1h-3.6
		c-0.1-1.2-0.3-2.2-0.6-3.2C30.9,35.6,31.9,35.3,32.6,34.9 M31.9,33.9c-0.7,0.3-1.5,0.5-2.5,0.7c-0.7-1.6-1.7-2.9-2.4-3.7
		C28.9,31.3,30.6,32.4,31.9,33.9 M25.7,31.5c0.7,0.7,1.6,1.9,2.3,3.4c-0.7,0.1-1.5,0.2-2.3,0.2V31.5z M25.7,36.3c1,0,2-0.1,2.8-0.3
		c0.3,0.9,0.5,1.9,0.6,2.9h-3.4V36.3z M25.7,40.3h3.4c-0.1,1.1-0.3,2-0.6,2.9c-0.9-0.1-1.8-0.2-2.8-0.3V40.3z M25.7,44.3
		c0.8,0,1.6,0.1,2.3,0.2c-0.7,1.5-1.6,2.6-2.3,3.4V44.3z M18.2,45.4c0.7-0.3,1.5-0.5,2.5-0.7c0.7,1.6,1.7,2.9,2.5,3.7
		C21.2,48,19.4,46.9,18.2,45.4 M24.4,47.8c-0.7-0.7-1.6-1.9-2.3-3.3c0.7-0.1,1.5-0.2,2.3-0.2V47.8z M24.4,43c-1,0-2,0.1-2.8,0.3
		c-0.3-0.9-0.5-1.9-0.6-2.9h3.4V43z M24.4,39H21c0.1-1.1,0.3-2,0.6-2.9c0.9,0.1,1.8,0.2,2.8,0.3V39z M24.4,35
		c-0.8,0-1.6-0.1-2.3-0.2c0.7-1.5,1.6-2.6,2.3-3.3V35z M23.2,30.9c-0.8,0.9-1.7,2.1-2.5,3.7c-1-0.2-1.8-0.5-2.5-0.7
		C19.4,32.4,21.2,31.3,23.2,30.9 M17.4,34.9c0.8,0.3,1.7,0.6,2.9,0.9c-0.3,1-0.5,2-0.6,3.2h-3.6C16.2,37.5,16.6,36.1,17.4,34.9
		 M16.1,40.3h3.6c0.1,1.2,0.3,2.2,0.6,3.2c-1.1,0.3-2.1,0.6-2.9,0.9C16.6,43.2,16.2,41.8,16.1,40.3"/>
</g>
<g>
	<defs>
		<rect id="SVGID_3_" x="81.3" y="10.9" width="290" height="39.6"/>
	</defs>
	<clipPath id="SVGID_4_">
		<use xlink:href="#SVGID_3_"  style="overflow:visible;"/>
	</clipPath>
	<path class="st1" d="M89.6,18c0-5.1-0.5-5.6-3.2-5.9l-1.1-0.1c-0.3-0.2-0.2-1,0.1-1.1c2.7,0.1,4.2,0.1,6.1,0.1c1.8,0,3.4,0,5.2-0.1
		c0.3,0.1,0.4,1,0.1,1.1l-0.7,0.1c-2.7,0.4-2.8,1-2.8,5.9v17c0,3.6-0.2,6.8-1.1,8.9c-1.5,3.7-4.8,6.6-9,6.6c-0.5,0-2,0-2-1
		c0-0.8,0.7-2.1,1.6-2.1c0.6,0,1.1,0.1,1.7,0.3c0.6,0.2,1.3,0.3,1.9,0.3c1,0,1.5-0.6,1.8-1.2c1.1-2.2,1.2-9,1.2-11.5V18z"/>
	<path class="st1" d="M96.7,28.8c0-7.7,5.8-13.6,13.8-13.6c8.9,0,13.4,6.5,13.4,13.3c0,7.8-6,13.5-13.4,13.5
		C101.9,41.9,96.7,35.8,96.7,28.8 M120,29.6c0-6.4-2.8-13.3-10.2-13.3c-4,0-9.2,2.7-9.2,11.2c0,5.7,2.8,13.1,10.4,13.1
		C115.6,40.7,120,37.3,120,29.6"/>
	<path class="st1" d="M132.7,28.8c-1.9,0-1.9,0.1-1.9,1.2v5.4c0,4.1,0.2,4.6,2.4,4.8l1.1,0.1c0.2,0.2,0.2,0.8-0.1,1
		c-2.1-0.1-3.4-0.1-4.9-0.1c-1.7,0-3,0.1-4.5,0.1c-0.2-0.1-0.3-0.7-0.1-1l0.7-0.1c2.2-0.4,2.2-0.8,2.2-4.8V21.6
		c0-4.1-0.3-4.7-2.3-4.9l-1-0.1c-0.2-0.2-0.2-0.9,0.1-1c1.9,0,3.2,0.1,4.9,0.1c1.5,0,2.8,0,4.5-0.1c0.2,0.1,0.3,0.8,0.1,1l-0.7,0.1
		c-2.2,0.2-2.3,0.8-2.3,4.9V26c0,1.2,0.1,1.2,1.9,1.2h11.1c1.9,0,1.9,0,1.9-1.2v-4.4c0-4.1-0.1-4.6-2.4-4.9l-0.7-0.1
		c-0.2-0.2-0.2-0.9,0.1-1c1.8,0.1,3.1,0.1,4.7,0.1c1.5,0,2.8,0,4.6-0.1c0.2,0.1,0.3,0.8,0.1,1l-0.8,0.1c-2.2,0.2-2.3,0.8-2.3,4.9
		v13.9c0,4.1,0.1,4.6,2.3,4.8l0.9,0.1c0.2,0.2,0.2,0.8-0.1,1c-1.9-0.1-3.2-0.1-4.7-0.1c-1.6,0-3,0-4.7,0.1c-0.2-0.1-0.3-0.7-0.1-1
		l0.7-0.1c2.4-0.4,2.4-0.8,2.4-4.8v-5.4c0-1.2-0.1-1.2-1.9-1.2H132.7z"/>
	<path class="st1" d="M178.5,34.7c0,1.2,0,5.8,0.1,6.8c-0.1,0.2-0.3,0.4-0.7,0.4c-0.5-0.7-1.6-2-4.9-5.8l-9-10.2
		c-1-1.2-3.7-4.4-4.5-5.2h-0.1c-0.2,0.5-0.2,1.3-0.2,2.5v8.4c0,1.8,0,6.8,0.7,8c0.2,0.4,1,0.7,2,0.7l1.2,0.1c0.2,0.3,0.2,0.8-0.1,1
		c-1.7-0.1-3.1-0.1-4.5-0.1c-1.6,0-2.7,0-4,0.1c-0.3-0.2-0.3-0.7-0.1-1l1-0.1c0.9-0.1,1.5-0.3,1.7-0.8c0.5-1.4,0.5-6.1,0.5-8V20.4
		c0-1.1,0-1.9-0.8-2.8c-0.5-0.5-1.5-0.8-2.4-0.9l-0.7-0.1c-0.2-0.2-0.2-0.8,0.1-1c1.6,0.1,3.7,0.1,4.4,0.1c0.6,0,1.3,0,1.8-0.1
		c0.8,2,5.3,7.1,6.6,8.5l3.8,4.2c2.7,3,4.6,5.1,6.4,7h0.1c0.2-0.2,0.2-0.8,0.2-1.6v-8.3c0-1.8,0-6.8-0.8-8c-0.2-0.3-0.8-0.6-2.4-0.8
		l-0.7-0.1c-0.3-0.2-0.2-0.9,0.1-1c1.8,0.1,3.1,0.1,4.6,0.1c1.7,0,2.7,0,4-0.1c0.3,0.2,0.3,0.7,0.1,1l-0.5,0.1
		c-1.2,0.2-2,0.5-2.2,0.8c-0.7,1.4-0.6,6.2-0.6,8V34.7z"/>
	<path class="st1" d="M188.7,41.9c-3.3,0-5.3-1-6-1.4c-0.5-0.9-1-3.6-1-5.4c0.2-0.3,0.8-0.3,0.9-0.1c0.6,2,2.2,5.8,6.6,5.8
		c3.2,0,4.8-2.1,4.8-4.4c0-1.7-0.3-3.6-3.2-5.4l-3.7-2.4c-1.9-1.3-4.2-3.5-4.2-6.6c0-3.7,2.9-6.6,7.9-6.6c1.2,0,2.6,0.2,3.6,0.5
		c0.5,0.2,1,0.2,1.3,0.2c0.3,0.9,0.7,3.1,0.7,4.7c-0.2,0.2-0.8,0.3-1,0.1c-0.5-1.9-1.5-4.4-5.3-4.4c-3.8,0-4.6,2.5-4.6,4.3
		c0,2.2,1.9,3.9,3.3,4.8l3.1,1.9c2.4,1.5,4.8,3.7,4.8,7.4C196.9,39,193.7,41.9,188.7,41.9"/>
	<path class="st1" d="M219.9,26.5c-2.2,0-2.3,0.1-2.3,1.5v6.5c0,4.8,0.2,5.5,2.8,5.7l1.3,0.1c0.3,0.2,0.2,1-0.1,1.1
		c-2.5-0.1-4-0.1-5.8-0.1c-2,0-3.5,0.1-5.3,0.1c-0.3-0.1-0.4-0.9-0.1-1.1l0.8-0.1c2.6-0.5,2.7-0.9,2.7-5.7V17.9
		c0-4.8-0.3-5.6-2.7-5.8l-1.2-0.1c-0.3-0.2-0.2-1,0.1-1.1c2.2,0,3.8,0.1,5.8,0.1c1.8,0,3.3,0,5.3-0.1c0.3,0.1,0.4,1,0.1,1.1
		l-0.9,0.1c-2.7,0.3-2.7,1-2.7,5.8v5.3c0,1.4,0.1,1.5,2.3,1.5H233c2.2,0,2.3,0,2.3-1.5v-5.3c0-4.8-0.1-5.5-2.8-5.8l-0.9-0.1
		c-0.3-0.2-0.2-1,0.1-1.1c2.1,0.1,3.7,0.1,5.5,0.1c1.8,0,3.3,0,5.4-0.1c0.3,0.1,0.4,1,0.1,1.1l-1,0.1c-2.7,0.3-2.7,1-2.7,5.8v16.5
		c0,4.8,0.1,5.4,2.7,5.7l1.1,0.1c0.3,0.2,0.2,1-0.1,1.1c-2.2-0.1-3.8-0.1-5.5-0.1c-1.9,0-3.5,0-5.5,0.1c-0.3-0.1-0.4-0.9-0.1-1.1
		l0.9-0.1c2.8-0.5,2.8-0.9,2.8-5.7V28c0-1.4-0.1-1.5-2.3-1.5H219.9z"/>
	<path class="st1" d="M242.6,28.8c0-7.7,5.8-13.6,13.8-13.6c8.9,0,13.4,6.5,13.4,13.3c0,7.8-6,13.5-13.4,13.5
		C247.8,41.9,242.6,35.8,242.6,28.8 M265.9,29.6c0-6.4-2.8-13.3-10.2-13.3c-4,0-9.2,2.7-9.2,11.2c0,5.7,2.8,13.1,10.4,13.1
		C261.5,40.7,265.9,37.3,265.9,29.6"/>
	<path class="st1" d="M276.8,35.5c0,4.1,0.1,4.6,2.6,4.8l1,0.1c0.2,0.2,0.2,0.9-0.1,1c-2.2-0.1-3.5-0.1-5-0.1c-1.6,0-3,0-4.7,0.1
		c-0.2-0.1-0.3-0.7-0.1-1l0.8-0.1c2.2-0.3,2.3-0.8,2.3-4.8V21.3c0-3.3-0.1-3.9-1.8-4.1l-1.4-0.2c-0.3-0.2-0.2-0.8,0.1-1
		c2-0.3,4.4-0.3,7.7-0.3c3.2,0,5.6,0.4,7.4,1.5c1.8,1.1,3.1,3.1,3.1,5.8c0,3.6-2.2,5.3-3.9,6.1c-1.7,0.8-3.8,1.2-5.3,1.2
		c-0.3-0.1-0.3-0.7,0-0.8c4.2-0.8,5.7-3.1,5.7-6.5c0-3.8-2.2-6.2-6.2-6.2c-2,0-2.1,0.2-2.1,1.4V35.5z"/>
	<path class="st1" d="M292.9,21.6c0-4.1-0.1-4.7-2.3-4.9l-1-0.1c-0.2-0.2-0.2-0.9,0.1-1c1.9,0.1,3.1,0.1,4.9,0.1
		c1.5,0,2.8,0,4.5-0.1c0.2,0.1,0.3,0.8,0.1,1l-0.7,0.1c-2.2,0.2-2.3,0.8-2.3,4.9v4.4c0,0.7,0.1,1.5,0.5,1.5c0.3,0,0.8-0.2,1.1-0.4
		c0.5-0.5,1.5-1.5,2-1.9l4.2-4.1c0.7-0.7,2.6-2.7,3-3.2c0.2-0.3,0.3-0.5,0.3-0.6c0-0.2-0.2-0.3-0.7-0.4l-1-0.2
		c-0.3-0.3-0.2-0.8,0.1-1c1.4,0.1,2.9,0.1,4.3,0.1c1.4,0,2.7,0,3.8-0.1c0.3,0.2,0.3,0.7,0.1,1c-1,0.1-2.5,0.5-3.6,1.1
		c-1.1,0.6-3.3,2.4-5.4,4.5l-3.5,3.3c-0.5,0.5-0.9,0.9-0.9,1.2c0,0.3,0.2,0.6,0.7,1.2c3.7,4.2,6.6,7.7,9.7,10.9
		c0.9,0.9,1.6,1.4,2.9,1.6l0.7,0.1c0.3,0.2,0.2,0.8-0.1,1c-1-0.1-2.1-0.1-3.9-0.1c-1.6,0-2.9,0-4.7,0.1c-0.3-0.1-0.4-0.7-0.2-1
		l0.9-0.2c0.5-0.1,0.9-0.2,0.9-0.4c0-0.2-0.3-0.5-0.5-0.9c-0.7-0.9-1.7-2-3.2-3.6l-3.1-3.5c-2.2-2.5-2.8-3.2-3.8-3.2
		c-0.6,0-0.7,0.5-0.7,1.9v5c0,4.1,0.1,4.6,2.2,4.8l1,0.1c0.2,0.2,0.2,0.8-0.1,1c-1.9-0.1-3.2-0.1-4.7-0.1c-1.6,0-2.9,0-4.5,0.1
		c-0.2-0.1-0.3-0.7-0.1-1l0.8-0.1c2-0.3,2.1-0.8,2.1-4.8V21.6z"/>
	<path class="st1" d="M319.4,21.7c0-4.1-0.1-4.8-2.4-4.9l-1-0.1c-0.2-0.2-0.2-0.9,0.1-1c1.9,0.1,3.2,0.1,4.9,0.1
		c1.5,0,2.9,0,4.8-0.1c0.2,0.1,0.3,0.8,0.1,1l-1,0.1c-2.3,0.2-2.4,0.9-2.4,4.9v13.8c0,4.1,0.1,4.6,2.4,4.9l1,0.1
		c0.2,0.2,0.2,0.8-0.1,1c-1.9-0.1-3.2-0.1-4.8-0.1c-1.6,0-2.8,0-4.7,0.1c-0.2-0.1-0.3-0.7-0.1-1l0.8-0.1c2.3-0.3,2.4-0.8,2.4-4.9
		V21.7z"/>
	<path class="st1" d="M352.8,34.7c0,1.2,0,5.8,0.1,6.8c-0.1,0.2-0.3,0.4-0.7,0.4c-0.5-0.7-1.6-2-4.9-5.8l-9-10.2
		c-1-1.2-3.7-4.4-4.5-5.2h-0.1c-0.2,0.5-0.2,1.3-0.2,2.5v8.4c0,1.8,0,6.8,0.7,8c0.2,0.4,1,0.7,2,0.7l1.2,0.1c0.2,0.3,0.2,0.8-0.1,1
		c-1.7-0.1-3.1-0.1-4.5-0.1c-1.6,0-2.7,0-4,0.1c-0.3-0.2-0.3-0.7-0.1-1l1-0.1c0.9-0.1,1.5-0.3,1.7-0.8c0.5-1.4,0.5-6.1,0.5-8V20.4
		c0-1.1,0-1.9-0.8-2.8c-0.5-0.5-1.5-0.8-2.4-0.9l-0.7-0.1c-0.2-0.2-0.2-0.8,0.1-1c1.6,0.1,3.7,0.1,4.4,0.1c0.6,0,1.3,0,1.8-0.1
		c0.8,2,5.3,7.1,6.6,8.5l3.8,4.2c2.7,3,4.6,5.1,6.4,7h0.1c0.2-0.2,0.2-0.8,0.2-1.6v-8.3c0-1.8,0-6.8-0.8-8c-0.2-0.3-0.8-0.6-2.4-0.8
		l-0.7-0.1c-0.3-0.2-0.2-0.9,0.1-1c1.8,0.1,3.1,0.1,4.6,0.1c1.7,0,2.7,0,4-0.1c0.3,0.2,0.3,0.7,0.1,1l-0.5,0.1
		c-1.2,0.2-2,0.5-2.2,0.8c-0.7,1.4-0.6,6.2-0.6,8V34.7z"/>
	<path class="st1" d="M363,41.9c-3.3,0-5.3-1-6-1.4c-0.5-0.9-1-3.6-1-5.4c0.2-0.3,0.8-0.3,0.9-0.1c0.6,2,2.2,5.8,6.7,5.8
		c3.2,0,4.8-2.1,4.8-4.4c0-1.7-0.3-3.6-3.2-5.4l-3.7-2.4c-1.9-1.3-4.2-3.5-4.2-6.6c0-3.7,2.9-6.6,7.9-6.6c1.2,0,2.6,0.2,3.6,0.5
		c0.5,0.2,1,0.2,1.3,0.2c0.3,0.9,0.7,3.1,0.7,4.7c-0.2,0.2-0.8,0.3-1,0.1c-0.5-1.9-1.5-4.4-5.3-4.4c-3.8,0-4.6,2.5-4.6,4.3
		c0,2.2,1.9,3.9,3.3,4.8l3.1,1.9c2.4,1.5,4.8,3.7,4.8,7.4C371.2,39,368,41.9,363,41.9"/>
</g>
<g>
	<defs>
		<rect id="SVGID_5_" x="-63.5" y="-66.3" width="504.2" height="228.7"/>
	</defs>
	<clipPath id="SVGID_6_">
		<use xlink:href="#SVGID_5_"  style="overflow:visible;"/>
	</clipPath>
	<path class="st2" d="M130.4,59c-0.1-0.1-0.1-0.4,0.1-0.5c0.5,0,1.4,0.1,2.1,0.1c0.6,0,1.6,0,2.3-0.1c0.2,0.1,0.2,0.3,0,0.5l-0.5,0
		c-0.4,0-0.7,0.2-0.7,0.3c0,0.2,0.4,1.3,1,2.7c1.1,2.5,2.3,5,3.5,7.5c0.5-1,1-2.1,1.5-3.2c0.2-0.4,0.3-0.7,0.3-0.8
		c0-0.1-0.1-0.3-0.2-0.5c-0.7-1.6-1.4-3.2-2.2-4.8c-0.3-0.6-0.6-1-1.3-1.1l-0.5,0c-0.1-0.2-0.1-0.4,0-0.5c0.6,0,1.3,0.1,2.1,0.1
		c1,0,1.7,0,2.2-0.1c0.1,0.1,0.2,0.3,0,0.5l-0.5,0c-0.8,0.1-0.8,0.2-0.4,1.1c0.4,1,1,2.2,1.5,3.5c0.4-0.8,0.7-1.5,1.2-2.6
		c0.7-1.7,0.6-1.9,0-2l-0.6,0c-0.1-0.2-0.1-0.4,0-0.5c0.5,0,1.1,0.1,1.9,0.1c0.7,0,1.5,0,1.9-0.1c0.1,0.1,0.2,0.3,0,0.5l-0.6,0
		c-0.8,0.1-1.2,1-1.6,1.8c-0.4,0.7-1.3,2.5-1.6,3.2c-0.1,0.2-0.2,0.4-0.2,0.5c0,0.1,0,0.2,0.1,0.5c0.7,1.5,1.4,3,2,4.6
		c0.6-1.4,1.2-2.8,1.8-4.2c0.4-1,1.5-3.6,1.6-4c0.3-0.7,0.6-1.6,0.6-1.8c0-0.3-0.2-0.4-0.7-0.5l-0.6,0c-0.2-0.2-0.1-0.4,0-0.5
		c0.8,0,1.3,0.1,1.9,0.1c0.8,0,1.3,0,1.9-0.1c0.2,0.1,0.2,0.3,0,0.5l-0.4,0c-1,0.1-1.2,0.7-2.4,3.5l-1.5,3.4c-0.9,2-1.7,4-2.5,6.1
		c-0.1,0-0.1,0.1-0.2,0.1c-0.1,0-0.2,0-0.3-0.1c-0.6-1.8-1.8-4.3-2.4-5.7c-0.7,1.5-1.9,4-2.5,5.7c-0.1,0-0.1,0.1-0.2,0.1
		c-0.1,0-0.2,0-0.3-0.1c-0.3-0.8-1.1-2.6-1.4-3.2c-1.3-2.8-2.5-5.6-3.8-8.3c-0.4-0.8-0.6-1.4-1.5-1.4L130.4,59z"/>
	<path class="st2" d="M155.8,65.3c-1,0-1,0-1,0.6v2.8c0,2.1,0.1,2.4,1.2,2.5l0.6,0.1c0.1,0.1,0.1,0.4,0,0.5c-1.1,0-1.8-0.1-2.5-0.1
		c-0.9,0-1.5,0-2.3,0.1c-0.1-0.1-0.2-0.4,0-0.5l0.3-0.1c1.1-0.2,1.2-0.4,1.2-2.5v-7.2c0-2.1-0.1-2.4-1.2-2.5l-0.5,0
		c-0.1-0.1-0.1-0.4,0-0.5c1,0,1.7,0.1,2.5,0.1c0.8,0,1.5,0,2.3-0.1c0.1,0.1,0.2,0.4,0,0.5l-0.4,0c-1.2,0.1-1.2,0.4-1.2,2.5v2.3
		c0,0.6,0,0.6,1,0.6h5.7c1,0,1,0,1-0.6v-2.3c0-2.1,0-2.4-1.2-2.5l-0.4,0c-0.1-0.1-0.1-0.4,0-0.5c0.9,0,1.6,0.1,2.4,0.1
		c0.8,0,1.5,0,2.4-0.1c0.1,0.1,0.2,0.4,0,0.5l-0.4,0c-1.2,0.1-1.2,0.4-1.2,2.5v7.2c0,2.1,0,2.4,1.2,2.5l0.5,0.1
		c0.1,0.1,0.1,0.4,0,0.5c-1,0-1.6-0.1-2.4-0.1c-0.8,0-1.5,0-2.4,0.1c-0.1-0.1-0.2-0.4,0-0.5l0.4-0.1c1.2-0.2,1.2-0.4,1.2-2.5V66
		c0-0.6,0-0.6-1-0.6H155.8z"/>
	<path class="st2" d="M170.3,61.6c0-2.1,0-2.5-1.2-2.6l-0.5,0c-0.1-0.1-0.1-0.4,0-0.5c1,0,1.7,0.1,2.5,0.1c0.8,0,1.5,0,2.5-0.1
		c0.1,0.1,0.2,0.4,0,0.5l-0.5,0c-1.2,0.1-1.2,0.4-1.2,2.6v7.1c0,2.1,0,2.4,1.2,2.5l0.5,0.1c0.1,0.1,0.1,0.4,0,0.5
		c-1,0-1.7-0.1-2.5-0.1c-0.8,0-1.5,0-2.5,0.1c-0.1-0.1-0.2-0.4,0-0.5l0.5-0.1c1.2-0.1,1.2-0.4,1.2-2.5V61.6z"/>
	<path class="st2" d="M182.8,68.8c0,2.1,0,2.4,1.2,2.5l0.6,0.1c0.1,0.1,0.1,0.4,0,0.5c-1.1,0-1.8-0.1-2.6-0.1c-0.8,0-1.5,0-2.8,0.1
		c-0.1-0.1-0.2-0.4,0-0.5l0.7-0.1c1.1-0.1,1.2-0.4,1.2-2.5v-8.9c0-0.6,0-0.6-0.6-0.6h-1.1c-0.9,0-2,0-2.5,0.5
		c-0.5,0.4-0.7,0.9-0.9,1.4c-0.2,0.1-0.4,0-0.5-0.1c0.3-0.9,0.6-2.2,0.8-3c0.1,0,0.3-0.1,0.4,0c0.1,0.6,0.8,0.6,1.7,0.6h8.1
		c1.1,0,1.3,0,1.6-0.6c0.1,0,0.3,0,0.4,0.1c-0.2,0.8-0.4,2.4-0.3,3c-0.1,0.2-0.4,0.2-0.5,0c-0.1-0.5-0.2-1.2-0.5-1.5
		c-0.5-0.3-1.2-0.5-2.3-0.5h-1.4c-0.6,0-0.6,0-0.6,0.7V68.8z"/>
	<path class="st2" d="M192.2,61.6c0-2.1,0-2.5-1.2-2.6l-0.5,0c-0.1-0.1-0.1-0.4,0-0.5c1,0,1.7,0.1,2.5,0.1c0.8,0,1.5,0,2.5-0.1
		c0.1,0.1,0.2,0.4,0,0.5l-0.5,0c-1.2,0.1-1.2,0.4-1.2,2.6v7.1c0,2.1,0,2.4,1.2,2.5l0.5,0.1c0.1,0.1,0.1,0.4,0,0.5
		c-1,0-1.7-0.1-2.5-0.1c-0.8,0-1.5,0-2.5,0.1c-0.1-0.1-0.2-0.4,0-0.5l0.5-0.1c1.2-0.1,1.2-0.4,1.2-2.5V61.6z"/>
	<path class="st2" d="M210.7,68.4c0,0.6,0,3,0.1,3.5c0,0.1-0.2,0.2-0.4,0.2c-0.2-0.3-0.8-1-2.6-3l-4.6-5.3c-0.5-0.6-1.9-2.3-2.3-2.7
		h0c-0.1,0.2-0.1,0.7-0.1,1.3v4.4c0,0.9,0,3.5,0.4,4.1c0.1,0.2,0.5,0.3,1,0.4l0.6,0.1c0.1,0.2,0.1,0.4,0,0.5c-0.9,0-1.6-0.1-2.3-0.1
		c-0.8,0-1.4,0-2.1,0.1c-0.1-0.1-0.2-0.4,0-0.5l0.5-0.1c0.5-0.1,0.8-0.2,0.9-0.4c0.3-0.7,0.3-3.2,0.3-4.1V61c0-0.6,0-1-0.4-1.4
		c-0.3-0.3-0.8-0.4-1.2-0.5l-0.3,0c-0.1-0.1-0.1-0.4,0-0.5c0.8,0.1,1.9,0.1,2.3,0.1c0.3,0,0.7,0,0.9-0.1c0.4,1,2.8,3.7,3.4,4.4
		l1.9,2.2c1.4,1.5,2.4,2.7,3.3,3.6h0c0.1-0.1,0.1-0.4,0.1-0.8v-4.3c0-0.9,0-3.5-0.4-4.1c-0.1-0.2-0.4-0.3-1.2-0.4l-0.3,0
		c-0.1-0.1-0.1-0.4,0-0.5c0.9,0,1.6,0.1,2.4,0.1c0.9,0,1.4,0,2.1-0.1c0.2,0.1,0.2,0.4,0,0.5l-0.3,0c-0.6,0.1-1,0.3-1.1,0.4
		c-0.3,0.7-0.3,3.2-0.3,4.1V68.4z"/>
	<path class="st2" d="M226.5,69.8c0,0.8,0.1,1.3,0.5,1.4c0.1,0.1,0.1,0.2,0,0.2c-0.2,0-0.6,0.1-1,0.2c-1.1,0.3-2.5,0.5-3.6,0.5
		c-2.4,0-4.6-0.7-6.1-2.2c-1.2-1.2-1.8-2.8-1.8-4.5c0-1.7,0.6-3.4,1.8-4.7c1.3-1.4,3.3-2.3,6.3-2.3c1.1,0,2.2,0.2,2.5,0.3
		c0.4,0.1,1,0.2,1.2,0.2c0,0.7,0.1,1.7,0.3,2.9c-0.1,0.2-0.4,0.2-0.5,0.1c-0.6-2.2-2.1-2.8-4.1-2.8c-3.9,0-5.6,2.8-5.6,5.8
		c0,3.8,2,6.9,6,6.9c1.2,0,2-0.3,2.2-0.6c0.1-0.1,0.2-0.5,0.2-1.1V69c0-1.7-0.1-1.8-1.3-1.9l-0.9-0.1c-0.2-0.1-0.1-0.4,0-0.5
		c0.6,0,1.7,0.1,2.9,0.1c0.8,0,1.5,0,2.1-0.1c0.1,0.1,0.2,0.4,0,0.5l-0.3,0c-0.8,0.1-0.9,0.7-0.9,1.7V69.8z"/>
	<path class="st2" d="M239.9,72.1c-1.7,0-2.7-0.5-3.1-0.7c-0.2-0.4-0.5-1.9-0.5-2.8c0.1-0.1,0.4-0.2,0.5-0.1c0.3,1,1.1,3,3.4,3
		c1.7,0,2.5-1.1,2.5-2.3c0-0.9-0.2-1.9-1.6-2.8l-1.9-1.2c-1-0.7-2.2-1.8-2.2-3.4c0-1.9,1.5-3.4,4.1-3.4c0.6,0,1.3,0.1,1.9,0.3
		c0.3,0.1,0.5,0.1,0.7,0.1c0.2,0.5,0.4,1.6,0.4,2.4c-0.1,0.1-0.4,0.2-0.5,0.1c-0.3-1-0.8-2.3-2.7-2.3c-2,0-2.4,1.3-2.4,2.2
		c0,1.2,1,2,1.7,2.5l1.6,1c1.3,0.8,2.5,1.9,2.5,3.8C244.1,70.6,242.5,72.1,239.9,72.1"/>
	<path class="st2" d="M249.1,60c1.5-1.1,3.3-1.7,5.4-1.7c1.1,0,2.6,0.2,3.5,0.5c0.2,0.1,0.4,0.1,0.6,0.1c0,0.5,0.1,1.7,0.3,2.9
		c-0.1,0.1-0.4,0.2-0.5,0c-0.3-1.4-1.2-2.9-4.1-2.9c-3.1,0-5.7,1.9-5.7,6.1c0,4.2,2.7,6.5,5.9,6.5c2.6,0,3.7-1.7,4.2-2.9
		c0.1-0.1,0.4-0.1,0.5,0.1c-0.1,1-0.7,2.4-1,2.7c-0.2,0-0.5,0.1-0.7,0.2c-0.4,0.2-1.9,0.5-3.2,0.5c-1.8,0-3.5-0.4-5-1.3
		c-1.6-1.1-2.8-2.9-2.8-5.5C246.6,63.1,247.6,61.2,249.1,60"/>
	<path class="st2" d="M265.7,65.3c-1,0-1,0-1,0.6v2.8c0,2.1,0.1,2.4,1.2,2.5l0.6,0.1c0.1,0.1,0.1,0.4,0,0.5c-1.1,0-1.8-0.1-2.5-0.1
		c-0.9,0-1.5,0-2.3,0.1c-0.1-0.1-0.2-0.4,0-0.5l0.3-0.1c1.1-0.2,1.2-0.4,1.2-2.5v-7.2c0-2.1-0.1-2.4-1.2-2.5l-0.5,0
		c-0.1-0.1-0.1-0.4,0-0.5c1,0,1.7,0.1,2.5,0.1c0.8,0,1.5,0,2.3-0.1c0.1,0.1,0.2,0.4,0,0.5l-0.4,0c-1.2,0.1-1.2,0.4-1.2,2.5v2.3
		c0,0.6,0,0.6,1,0.6h5.7c1,0,1,0,1-0.6v-2.3c0-2.1,0-2.4-1.2-2.5l-0.4,0c-0.1-0.1-0.1-0.4,0-0.5c0.9,0,1.6,0.1,2.4,0.1
		c0.8,0,1.5,0,2.4-0.1c0.1,0.1,0.2,0.4,0,0.5l-0.4,0c-1.2,0.1-1.2,0.4-1.2,2.5v7.2c0,2.1,0,2.4,1.2,2.5l0.5,0.1
		c0.1,0.1,0.1,0.4,0,0.5c-1,0-1.6-0.1-2.4-0.1c-0.8,0-1.5,0-2.4,0.1c-0.1-0.1-0.2-0.4,0-0.5l0.4-0.1c1.2-0.2,1.2-0.4,1.2-2.5V66
		c0-0.6,0-0.6-1-0.6H265.7z"/>
	<path class="st2" d="M278.3,65.3c0-4,3-7.1,7.1-7.1c4.6,0,6.9,3.3,6.9,6.9c0,4-3.1,7-6.9,7C281,72.1,278.3,68.9,278.3,65.3
		 M290.4,65.8c0-3.3-1.5-6.9-5.3-6.9c-2.1,0-4.8,1.4-4.8,5.8c0,3,1.4,6.8,5.4,6.8C288.1,71.5,290.4,69.7,290.4,65.8"/>
	<path class="st2" d="M295.2,65.3c0-4,3-7.1,7.1-7.1c4.6,0,6.9,3.3,6.9,6.9c0,4-3.1,7-6.9,7C297.9,72.1,295.2,68.9,295.2,65.3
		 M307.3,65.8c0-3.3-1.5-6.9-5.3-6.9c-2.1,0-4.8,1.4-4.8,5.8c0,3,1.4,6.8,5.4,6.8C305,71.5,307.3,69.7,307.3,65.8"/>
	<path class="st2" d="M313.6,61.6c0-2.1,0-2.4-1.3-2.5l-0.5,0c-0.1-0.1-0.1-0.4,0-0.5c1.1,0,1.8,0.1,2.6,0.1c0.8,0,1.5,0,2.5-0.1
		c0.1,0.1,0.2,0.4,0,0.5l-0.5,0c-1.2,0.1-1.2,0.4-1.2,2.5v7c0,1.3,0.1,1.8,0.4,2.2c0.2,0.2,0.6,0.5,2.2,0.5c1.7,0,2.1-0.1,2.4-0.3
		c0.4-0.2,0.9-1,1.3-2c0.1-0.1,0.5,0,0.5,0.1c0,0.2-0.6,2.3-0.8,2.8c-1,0-2.9-0.1-5-0.1h-1.8c-0.8,0-1.5,0-2.6,0.1
		c-0.1-0.1-0.2-0.4,0-0.5l0.6-0.1c1.2-0.1,1.2-0.4,1.2-2.5V61.6z"/>
	<path class="st2" d="M149.7,87.9c-0.1,1.1-0.6,3-2.1,4.5c-1.2,1.3-2.3,1.4-2.9,1.4c-1.3,0-2.1-0.9-2-2.7c0.1-1.2,0.8-3.2,2.2-4.5
		c1-1,1.9-1.3,2.8-1.3C149.1,85.4,149.8,86.4,149.7,87.9 M146.1,86.9c-1.2,1.6-1.9,3.9-2,5c0,0.7,0.2,1.3,0.8,1.3
		c0.4,0,0.9-0.2,1.6-1c0.9-1.2,1.8-3.8,1.9-4.9c0-0.6-0.1-1.3-0.8-1.3C147.2,86,146.7,86.2,146.1,86.9"/>
	<path class="st2" d="M155.5,86.4c-0.1,0.3-0.3,1-0.5,1.9c-0.6,2.2-1.1,4.2-1.8,6.4c-0.5,1.8-1.2,2.8-1.6,3.2
		c-0.3,0.3-1.2,1.1-2.4,1.1c-1.1,0-1.5-0.7-1.5-1c0-0.4,0.2-0.7,0.5-0.9c0.2-0.1,0.3-0.1,0.5,0.1c0.5,0.5,1.1,0.8,1.5,0.8
		c0.4,0,0.8-0.1,1.3-1.7c0.9-3.2,1.6-6.6,2.6-9.9h-1.7c-0.2-0.2-0.1-0.6,0.1-0.7h1.7c0.5-1.8,1.1-3.4,2.2-4.8c1-1.2,2-1.7,3.2-1.7
		c0.7,0,1.5,0.5,1.5,1.3c0,0.5-0.5,1.1-0.9,1.1c-0.2,0-0.3-0.2-0.3-0.3c-0.1-1.1-0.6-1.5-1.1-1.5c-0.4,0-1,0.4-1.4,1.1
		c-0.9,1.3-1.3,2.8-1.9,4.7h2.5c0.1,0.2,0.1,0.5-0.2,0.7H155.5z"/>
	<path class="st2" d="M167.2,83.3c0-2.1,0-2.4-1.2-2.5l-0.3,0c-0.1-0.1-0.1-0.4,0-0.5c0.9,0,1.5,0.1,2.4,0.1h3.8
		c1.3,0,2.5,0,2.7-0.1c0.1,0.3,0.2,1.8,0.3,2.7c-0.1,0.1-0.4,0.2-0.5,0c-0.3-0.9-0.5-1.6-1.5-1.9c-0.4-0.1-1.1-0.1-1.9-0.1h-1.4
		c-0.6,0-0.6,0-0.6,0.8v4c0,0.6,0.1,0.6,0.7,0.6h1.2c0.8,0,1.5,0,1.7-0.1c0.2-0.1,0.4-0.2,0.5-0.7l0.2-0.8c0.1-0.1,0.4-0.1,0.5,0
		c0,0.5-0.1,1.3-0.1,2c0,0.7,0.1,1.5,0.1,1.9c-0.1,0.1-0.4,0.1-0.5,0l-0.2-0.8c-0.1-0.4-0.2-0.7-0.6-0.8c-0.3-0.1-0.8-0.1-1.5-0.1
		h-1.2c-0.6,0-0.7,0-0.7,0.5v2.8c0,1.1,0.1,1.7,0.4,2.1c0.2,0.2,0.7,0.5,2.4,0.5c1.5,0,2.1-0.1,2.6-0.3c0.4-0.2,0.9-0.9,1.4-1.9
		c0.1-0.1,0.4,0,0.5,0.1c-0.1,0.7-0.6,2.2-0.9,2.8c-1.8,0-3.6-0.1-5.4-0.1h-1.8c-0.9,0-1.5,0-2.7,0.1c-0.1-0.1-0.2-0.4,0-0.5L166,93
		c1.1-0.1,1.2-0.4,1.2-2.5V83.3z"/>
	<path class="st2" d="M190.6,90.1c0,0.6,0,3,0.1,3.5c0,0.1-0.2,0.2-0.4,0.2c-0.2-0.3-0.8-1-2.6-3l-4.6-5.3c-0.5-0.6-1.9-2.3-2.3-2.7
		h0c-0.1,0.2-0.1,0.7-0.1,1.3v4.4c0,0.9,0,3.5,0.4,4.1c0.1,0.2,0.5,0.3,1,0.4l0.6,0.1c0.1,0.2,0.1,0.4,0,0.5c-0.9,0-1.6-0.1-2.3-0.1
		c-0.8,0-1.4,0-2.1,0.1c-0.1-0.1-0.2-0.4,0-0.5l0.5-0.1c0.5-0.1,0.8-0.2,0.9-0.4c0.3-0.7,0.3-3.2,0.3-4.1v-5.8c0-0.6,0-1-0.4-1.4
		c-0.3-0.3-0.8-0.4-1.2-0.5l-0.3,0c-0.1-0.1-0.1-0.4,0-0.5c0.8,0.1,1.9,0.1,2.3,0.1c0.3,0,0.7,0,0.9-0.1c0.4,1,2.8,3.7,3.4,4.4
		l1.9,2.2c1.4,1.5,2.4,2.7,3.3,3.6h0c0.1-0.1,0.1-0.4,0.1-0.8v-4.3c0-0.9,0-3.5-0.4-4.1c-0.1-0.2-0.4-0.3-1.2-0.4l-0.3,0
		c-0.1-0.1-0.1-0.4,0-0.5c0.9,0,1.6,0.1,2.4,0.1c0.9,0,1.4,0,2.1-0.1c0.2,0.1,0.2,0.4,0,0.5l-0.3,0c-0.6,0.1-1,0.3-1.1,0.4
		c-0.3,0.7-0.3,3.2-0.3,4.1V90.1z"/>
	<path class="st2" d="M205.9,91.5c0,0.8,0.1,1.3,0.5,1.4c0.1,0.1,0.1,0.2,0,0.2c-0.2,0-0.6,0.1-1,0.2c-1.1,0.3-2.5,0.5-3.6,0.5
		c-2.4,0-4.6-0.7-6.1-2.2c-1.2-1.2-1.8-2.8-1.8-4.5c0-1.7,0.6-3.4,1.8-4.7C197,81,199,80,202,80c1.1,0,2.2,0.2,2.5,0.3
		c0.4,0.1,1,0.2,1.2,0.2c0,0.7,0.1,1.7,0.3,2.9c-0.1,0.2-0.4,0.2-0.5,0.1c-0.6-2.2-2.1-2.8-4.1-2.8c-3.9,0-5.6,2.8-5.6,5.8
		c0,3.8,2,6.9,6,6.9c1.2,0,2-0.3,2.2-0.6c0.1-0.1,0.2-0.5,0.2-1.1v-0.8c0-1.7-0.1-1.8-1.3-1.9l-0.9-0.1c-0.2-0.1-0.1-0.4,0-0.5
		c0.6,0,1.7,0.1,2.9,0.1c0.8,0,1.5,0,2.1-0.1c0.1,0.1,0.2,0.4,0,0.5l-0.3,0c-0.8,0.1-0.9,0.7-0.9,1.7V91.5z"/>
	<path class="st2" d="M211.4,83.4c0-2.1,0-2.5-1.2-2.6l-0.5,0c-0.1-0.1-0.1-0.4,0-0.5c1,0,1.7,0.1,2.5,0.1c0.8,0,1.5,0,2.5-0.1
		c0.1,0.1,0.2,0.4,0,0.5l-0.5,0c-1.2,0.1-1.2,0.4-1.2,2.6v7.1c0,2.1,0,2.4,1.2,2.5l0.5,0.1c0.1,0.1,0.1,0.4,0,0.5
		c-1,0-1.7-0.1-2.5-0.1c-0.8,0-1.5,0-2.5,0.1c-0.1-0.1-0.2-0.4,0-0.5l0.5-0.1c1.2-0.1,1.2-0.4,1.2-2.5V83.4z"/>
	<path class="st2" d="M229.9,90.1c0,0.6,0,3,0.1,3.5c0,0.1-0.2,0.2-0.4,0.2c-0.2-0.3-0.8-1-2.6-3l-4.6-5.3c-0.5-0.6-1.9-2.3-2.3-2.7
		h0c-0.1,0.2-0.1,0.7-0.1,1.3v4.4c0,0.9,0,3.5,0.4,4.1c0.1,0.2,0.5,0.3,1,0.4l0.6,0.1c0.1,0.2,0.1,0.4,0,0.5c-0.9,0-1.6-0.1-2.3-0.1
		c-0.8,0-1.4,0-2.1,0.1c-0.1-0.1-0.2-0.4,0-0.5l0.5-0.1c0.5-0.1,0.8-0.2,0.9-0.4c0.3-0.7,0.3-3.2,0.3-4.1v-5.8c0-0.6,0-1-0.4-1.4
		c-0.3-0.3-0.8-0.4-1.2-0.5l-0.3,0c-0.1-0.1-0.1-0.4,0-0.5c0.8,0.1,1.9,0.1,2.3,0.1c0.3,0,0.7,0,0.9-0.1c0.4,1,2.8,3.7,3.4,4.4
		l1.9,2.2c1.4,1.5,2.4,2.7,3.3,3.6h0c0.1-0.1,0.1-0.4,0.1-0.8v-4.3c0-0.9,0-3.5-0.4-4.1c-0.1-0.2-0.4-0.3-1.2-0.4l-0.3,0
		c-0.1-0.1-0.1-0.4,0-0.5c0.9,0,1.6,0.1,2.4,0.1c0.9,0,1.4,0,2.1-0.1c0.2,0.1,0.2,0.4,0,0.5l-0.3,0c-0.6,0.1-1,0.3-1.1,0.4
		c-0.3,0.7-0.3,3.2-0.3,4.1V90.1z"/>
	<path class="st2" d="M235.8,83.3c0-2.1,0-2.4-1.2-2.5l-0.3,0c-0.1-0.1-0.1-0.4,0-0.5c0.9,0,1.5,0.1,2.4,0.1h3.8
		c1.3,0,2.5,0,2.7-0.1c0.1,0.3,0.2,1.8,0.3,2.7c-0.1,0.1-0.4,0.2-0.5,0c-0.3-0.9-0.5-1.6-1.5-1.9c-0.4-0.1-1.1-0.1-1.9-0.1H238
		c-0.6,0-0.6,0-0.6,0.8v4c0,0.6,0.1,0.6,0.7,0.6h1.2c0.8,0,1.5,0,1.7-0.1c0.2-0.1,0.4-0.2,0.5-0.7l0.2-0.8c0.1-0.1,0.4-0.1,0.5,0
		c0,0.5-0.1,1.3-0.1,2c0,0.7,0.1,1.5,0.1,1.9c-0.1,0.1-0.4,0.1-0.5,0l-0.2-0.8c-0.1-0.4-0.2-0.7-0.6-0.8c-0.3-0.1-0.8-0.1-1.5-0.1
		h-1.2c-0.6,0-0.7,0-0.7,0.5v2.8c0,1.1,0.1,1.7,0.4,2.1c0.2,0.2,0.7,0.5,2.4,0.5c1.5,0,2.1-0.1,2.6-0.3c0.4-0.2,0.9-0.9,1.4-1.9
		c0.1-0.1,0.4,0,0.5,0.1c-0.1,0.7-0.6,2.2-0.9,2.8c-1.8,0-3.6-0.1-5.4-0.1h-1.8c-0.9,0-1.5,0-2.7,0.1c-0.1-0.1-0.2-0.4,0-0.5
		l0.7-0.1c1.1-0.1,1.2-0.4,1.2-2.5V83.3z"/>
	<path class="st2" d="M248.4,83.3c0-2.1,0-2.4-1.2-2.5l-0.3,0c-0.1-0.1-0.1-0.4,0-0.5c0.9,0,1.5,0.1,2.4,0.1h3.8
		c1.3,0,2.5,0,2.7-0.1c0.1,0.3,0.2,1.8,0.3,2.7c-0.1,0.1-0.4,0.2-0.5,0c-0.3-0.9-0.5-1.6-1.5-1.9c-0.4-0.1-1.1-0.1-1.9-0.1h-1.4
		c-0.6,0-0.6,0-0.6,0.8v4c0,0.6,0.1,0.6,0.7,0.6h1.2c0.8,0,1.5,0,1.7-0.1c0.2-0.1,0.4-0.2,0.5-0.7l0.2-0.8c0.1-0.1,0.4-0.1,0.5,0
		c0,0.5-0.1,1.3-0.1,2c0,0.7,0.1,1.5,0.1,1.9c-0.1,0.1-0.4,0.1-0.5,0l-0.2-0.8c-0.1-0.4-0.2-0.7-0.6-0.8c-0.3-0.1-0.8-0.1-1.5-0.1
		h-1.2c-0.6,0-0.7,0-0.7,0.5v2.8c0,1.1,0.1,1.7,0.4,2.1c0.2,0.2,0.7,0.5,2.4,0.5c1.5,0,2.1-0.1,2.6-0.3c0.4-0.2,0.9-0.9,1.4-1.9
		c0.1-0.1,0.4,0,0.5,0.1c-0.1,0.7-0.6,2.2-0.9,2.8c-1.8,0-3.6-0.1-5.4-0.1h-1.8c-0.9,0-1.5,0-2.7,0.1c-0.1-0.1-0.2-0.4,0-0.5
		l0.7-0.1c1.1-0.1,1.2-0.4,1.2-2.5V83.3z"/>
	<path class="st2" d="M261.1,83.4c0-1.9-0.1-2.2-0.9-2.3l-0.6-0.1c-0.1-0.1-0.1-0.4,0-0.5c1.1-0.1,2.5-0.2,4.5-0.2
		c1.2,0,2.4,0.1,3.3,0.6c1,0.5,1.7,1.4,1.7,2.8c0,1.9-1.5,2.9-2.5,3.3c-0.1,0.1,0,0.3,0.1,0.5c1.6,2.6,2.7,4.2,4,5.3
		c0.3,0.3,0.8,0.5,1.4,0.6c0.1,0,0.1,0.2,0,0.3c-0.2,0.1-0.5,0.1-0.9,0.1c-1.7,0-2.7-0.5-4.1-2.5c-0.5-0.7-1.3-2.1-2-3
		c-0.3-0.4-0.6-0.6-1.4-0.6c-0.9,0-0.9,0-0.9,0.4v2.5c0,2.1,0,2.3,1.2,2.5l0.4,0.1c0.1,0.1,0.1,0.4,0,0.5c-0.9,0-1.6-0.1-2.4-0.1
		c-0.8,0-1.6,0-2.5,0.1c-0.1-0.1-0.2-0.4,0-0.5l0.5-0.1c1.2-0.1,1.2-0.4,1.2-2.5V83.4z M262.7,86.2c0,0.4,0,0.6,0.1,0.7
		c0.1,0.1,0.4,0.1,1.4,0.1c0.7,0,1.5-0.1,2.1-0.5c0.5-0.4,1-1.1,1-2.5c0-1.6-1-3.1-3.2-3.1c-1.2,0-1.3,0.1-1.3,0.6V86.2z"/>
	<path class="st2" d="M275,83.4c0-2.1,0-2.5-1.2-2.6l-0.5,0c-0.1-0.1-0.1-0.4,0-0.5c1,0,1.7,0.1,2.5,0.1c0.8,0,1.5,0,2.5-0.1
		c0.1,0.1,0.2,0.4,0,0.5l-0.5,0c-1.2,0.1-1.2,0.4-1.2,2.6v7.1c0,2.1,0,2.4,1.2,2.5l0.5,0.1c0.1,0.1,0.1,0.4,0,0.5
		c-1,0-1.7-0.1-2.5-0.1c-0.8,0-1.5,0-2.5,0.1c-0.1-0.1-0.2-0.4,0-0.5l0.5-0.1c1.2-0.1,1.2-0.4,1.2-2.5V83.4z"/>
	<path class="st2" d="M293.5,90.1c0,0.6,0,3,0.1,3.5c0,0.1-0.2,0.2-0.4,0.2c-0.2-0.3-0.8-1-2.6-3l-4.6-5.3c-0.5-0.6-1.9-2.3-2.3-2.7
		h0c-0.1,0.2-0.1,0.7-0.1,1.3v4.4c0,0.9,0,3.5,0.4,4.1c0.1,0.2,0.5,0.3,1,0.4l0.6,0.1c0.1,0.2,0.1,0.4,0,0.5c-0.9,0-1.6-0.1-2.3-0.1
		c-0.8,0-1.4,0-2.1,0.1c-0.1-0.1-0.2-0.4,0-0.5l0.5-0.1c0.5-0.1,0.8-0.2,0.9-0.4c0.3-0.7,0.3-3.2,0.3-4.1v-5.8c0-0.6,0-1-0.4-1.4
		c-0.3-0.3-0.8-0.4-1.2-0.5l-0.3,0c-0.1-0.1-0.1-0.4,0-0.5c0.8,0.1,1.9,0.1,2.3,0.1c0.3,0,0.7,0,0.9-0.1c0.4,1,2.8,3.7,3.4,4.4
		l1.9,2.2c1.4,1.5,2.4,2.7,3.3,3.6h0c0.1-0.1,0.1-0.4,0.1-0.8v-4.3c0-0.9,0-3.5-0.4-4.1c-0.1-0.2-0.4-0.3-1.2-0.4l-0.3,0
		c-0.1-0.1-0.1-0.4,0-0.5c0.9,0,1.6,0.1,2.4,0.1c0.9,0,1.4,0,2.1-0.1c0.2,0.1,0.2,0.4,0,0.5l-0.3,0c-0.6,0.1-1,0.3-1.1,0.4
		c-0.3,0.7-0.3,3.2-0.3,4.1V90.1z"/>
	<path class="st2" d="M308.7,91.5c0,0.8,0.1,1.3,0.5,1.4c0.1,0.1,0.1,0.2,0,0.2c-0.2,0-0.6,0.1-1,0.2c-1.1,0.3-2.5,0.5-3.6,0.5
		c-2.4,0-4.6-0.7-6.1-2.2c-1.2-1.2-1.8-2.8-1.8-4.5c0-1.7,0.6-3.4,1.8-4.7c1.3-1.4,3.3-2.3,6.3-2.3c1.1,0,2.2,0.2,2.5,0.3
		c0.4,0.1,1,0.2,1.2,0.2c0,0.7,0.1,1.7,0.3,2.9c-0.1,0.2-0.4,0.2-0.5,0.1c-0.6-2.2-2.1-2.8-4.1-2.8c-3.9,0-5.6,2.8-5.6,5.8
		c0,3.8,2,6.9,6,6.9c1.2,0,2-0.3,2.2-0.6c0.1-0.1,0.2-0.5,0.2-1.1v-0.8c0-1.7-0.1-1.8-1.3-1.9l-0.9-0.1c-0.2-0.1-0.1-0.4,0-0.5
		c0.6,0,1.7,0.1,2.9,0.1c0.8,0,1.5,0,2.1-0.1c0.1,0.1,0.2,0.4,0,0.5l-0.3,0c-0.8,0.1-0.9,0.7-0.9,1.7V91.5z"/>
</g>
</svg>
